<?xml version="1.0" standalone="no"?>
<!DOCTYPE svg PUBLIC "-//W3C//DTD SVG 20010904//EN"
 "http://www.w3.org/TR/2001/REC-SVG-20010904/DTD/svg10.dtd">
<svg version="1.0" xmlns="http://www.w3.org/2000/svg"
 width="1000.000000pt" height="1000.000000pt" viewBox="0 0 1000.000000 1000.000000"
 preserveAspectRatio="xMidYMid meet">
<metadata>
Created by potrace 1.11, written by Peter Selinger 2001-2013
</metadata>
<g transform="translate(0.000000,1000.000000) scale(0.100000,-0.100000)"
fill="#000000" stroke="none">
<path d="M3253 8355 c-46 -37 -110 -121 -297 -393 -91 -133 -217 -313 -280
-401 -133 -185 -138 -194 -129 -218 18 -53 76 -70 111 -35 34 34 465 644 607
860 26 39 51 72 55 72 13 0 30 -51 30 -93 0 -23 -16 -107 -36 -187 -20 -80
-36 -159 -37 -177 -1 -41 27 -73 65 -73 40 0 64 30 78 97 7 32 25 112 42 178
36 144 35 237 -4 314 -41 80 -140 107 -205 56z"/>
<path d="M3415 7636 c-197 -33 -521 -126 -547 -158 -24 -27 -23 -63 3 -89 27
-27 56 -24 231 29 212 63 366 92 495 92 233 0 416 -57 584 -181 76 -56 199
-182 248 -253 135 -196 238 -605 295 -1176 68 -671 146 -1926 146 -2336 0
-113 1 -122 23 -142 30 -28 71 -28 98 1 21 22 21 26 15 267 -19 737 -109 2014
-177 2505 -50 370 -125 659 -219 845 -51 102 -117 189 -220 291 -153 151 -319
245 -519 290 -113 26 -346 33 -456 15z"/>
<path d="M2367 7291 c-30 -16 -114 -66 -186 -112 -428 -273 -684 -543 -783
-829 -54 -155 -66 -370 -29 -490 61 -194 213 -293 495 -320 193 -19 427 18
866 135 135 36 285 74 334 83 l89 19 186 -87 c348 -163 629 -260 752 -262 71
-1 122 24 166 81 61 80 53 136 -35 248 -48 59 -327 253 -366 253 -29 0 -66
-39 -66 -71 0 -31 20 -50 140 -129 129 -86 168 -117 201 -163 32 -44 28 -60
-19 -78 -59 -22 -378 90 -746 262 l-189 89 -65 -10 c-92 -15 -197 -41 -432
-105 -245 -66 -454 -110 -607 -126 -189 -19 -385 16 -477 86 -175 133 -138
516 78 800 143 189 326 340 659 545 152 93 176 119 156 163 -9 20 -46 47 -63
47 -2 0 -29 -13 -59 -29z"/>
<path d="M3353 7259 c-12 -6 -27 -25 -34 -41 -10 -25 -9 -33 8 -56 19 -26 25
-27 139 -34 188 -11 374 -70 475 -150 158 -124 307 -476 363 -853 66 -445 109
-1241 132 -2434 6 -326 8 -355 25 -372 25 -25 74 -24 100 2 21 21 21 25 15
333 -28 1296 -65 1999 -131 2461 -64 445 -231 834 -420 977 -66 50 -212 113
-333 144 -111 28 -303 41 -339 23z"/>
<path d="M2692 7182 c-10 -10 -24 -47 -31 -81 -20 -101 3 -165 72 -206 55 -31
81 -32 112 0 35 34 31 62 -11 101 -36 33 -37 34 -31 93 6 50 3 63 -14 85 -25
31 -70 35 -97 8z"/>
<path d="M2982 7113 c-35 -30 -33 -95 3 -119 55 -36 125 -2 125 61 0 63 -80
99 -128 58z"/>
<path d="M2760 6735 c-269 -78 -407 -128 -567 -206 -117 -57 -155 -81 -207
-132 -96 -92 -112 -176 -41 -209 37 -17 72 3 94 55 10 23 35 57 54 74 103 90
368 195 772 304 83 23 158 48 168 57 23 20 22 74 -1 95 -29 26 -73 20 -272
-38z"/>
<path d="M3361 6761 c-23 -23 -27 -68 -8 -94 7 -11 52 -26 122 -42 200 -45
310 -115 370 -234 36 -73 89 -212 105 -279 19 -74 88 -94 126 -36 15 22 15 32
4 82 -16 76 -71 216 -121 313 -72 139 -189 221 -389 273 -150 39 -184 42 -209
17z"/>
<path d="M2899 6419 c-12 -12 -32 -46 -46 -76 -45 -98 -19 -186 74 -253 40
-29 85 -38 109 -22 6 4 17 18 23 30 17 33 0 71 -44 99 -47 31 -52 60 -21 119
31 59 32 64 5 98 -25 32 -70 35 -100 5z"/>
<path d="M3320 6310 c-25 -25 -26 -72 -2 -93 9 -8 43 -24 75 -35 57 -21 164
-90 201 -131 24 -26 77 -28 99 -3 31 34 22 79 -25 123 -90 83 -234 159 -303
159 -14 0 -34 -9 -45 -20z"/>
<path d="M7325 5720 c-334 -36 -625 -170 -870 -402 -211 -200 -359 -430 -449
-699 -45 -138 -71 -264 -96 -480 -45 -383 -94 -568 -179 -673 -17 -21 -31 -42
-31 -47 0 -24 27 -60 49 -66 37 -10 52 -5 89 30 95 90 162 330 211 753 41 350
121 588 277 819 264 393 672 624 1109 629 149 1 172 -4 390 -92 137 -55 142
-56 240 -57 91 0 105 3 157 29 109 55 156 129 113 176 -27 30 -69 25 -120 -15
-93 -70 -175 -70 -345 0 -224 92 -356 115 -545 95z"/>
<path d="M8439 5709 c-16 -16 -20 -29 -15 -52 34 -185 -1 -260 -155 -331 -122
-57 -201 -68 -454 -64 -208 3 -224 2 -290 -20 -135 -45 -239 -116 -375 -258
-65 -67 -97 -111 -132 -179 -129 -251 -188 -624 -188 -1187 0 -235 1 -249 20
-268 27 -27 66 -25 94 3 23 24 24 24 29 363 6 349 17 488 57 687 27 132 76
275 123 360 85 152 271 303 427 348 31 9 123 13 290 14 277 1 330 10 474 81
146 72 222 168 233 293 7 74 -14 188 -38 212 -25 25 -74 24 -100 -2z"/>
<path d="M3026 5611 c-17 -18 -17 -30 -5 -165 26 -298 -28 -616 -173 -1009
-53 -147 -192 -479 -330 -794 -104 -238 -110 -255 -98 -283 14 -34 49 -48 88
-34 28 10 49 53 224 459 345 802 432 1110 432 1515 0 184 -13 281 -41 312 -22
24 -75 23 -97 -1z"/>
<path d="M3672 5465 c-37 -16 -39 -26 -47 -220 -8 -225 -64 -1451 -79 -1769
-9 -168 -11 -289 -5 -303 10 -26 52 -46 79 -38 49 16 48 3 80 661 63 1325 74
1622 57 1648 -20 30 -47 37 -85 21z"/>
<path d="M4028 5351 l-25 -20 -7 -313 c-3 -172 -6 -652 -7 -1066 0 -701 1
-755 17 -773 23 -26 76 -25 100 2 18 20 19 55 22 1084 l4 1062 -27 21 c-34 27
-46 27 -77 3z"/>
<path d="M3256 5227 c-50 -50 -19 -107 71 -133 137 -40 287 24 243 103 -25 43
-42 48 -105 33 -46 -11 -65 -11 -98 -1 -83 24 -85 24 -111 -2z"/>
<path d="M3192 4854 c-26 -18 -30 -74 -7 -98 27 -27 95 -38 200 -34 132 6 165
23 165 85 0 24 -7 37 -25 49 -22 14 -35 15 -103 5 -49 -6 -93 -7 -122 -1 -64
13 -83 12 -108 -6z"/>
<path d="M6743 4780 c-46 -18 -56 -74 -20 -108 32 -31 137 -32 167 -2 29 29
26 74 -6 99 -28 22 -99 28 -141 11z"/>
<path d="M3101 4517 c-14 -6 -29 -25 -34 -41 -24 -72 90 -122 258 -112 165 9
233 46 209 114 -15 43 -48 53 -119 36 -77 -18 -166 -18 -235 1 -30 8 -55 15
-55 15 0 0 -11 -6 -24 -13z"/>
<path d="M6545 4443 c-24 -23 -29 -61 -12 -86 36 -55 215 -63 258 -11 17 21
15 72 -4 91 -23 23 -221 28 -242 6z"/>
<path d="M2970 4140 c-22 -22 -26 -60 -10 -90 17 -31 115 -62 217 -68 116 -6
267 25 302 62 29 31 25 73 -10 99 -26 19 -27 19 -110 -2 -104 -26 -206 -27
-279 -1 -70 25 -85 25 -110 0z"/>
<path d="M6456 4097 c-74 -74 22 -143 186 -135 69 3 82 6 99 27 23 28 24 59 3
86 -12 16 -31 21 -107 27 -51 3 -106 9 -124 13 -26 6 -36 3 -57 -18z"/>
<path d="M6407 3729 c-51 -30 -36 -99 26 -125 60 -25 230 -31 279 -11 42 18
57 54 39 93 -15 34 -47 44 -108 33 -38 -7 -70 -6 -125 6 -85 18 -87 18 -111 4z"/>
<path d="M2755 3695 c-55 -54 -17 -105 100 -137 120 -32 366 -32 485 0 125 34
161 81 105 137 -29 30 -28 30 -118 4 -48 -14 -114 -23 -198 -26 -112 -5 -136
-3 -230 21 -58 14 -108 26 -112 26 -5 0 -19 -11 -32 -25z"/>
<path d="M7420 3383 c-155 -17 -338 -67 -520 -143 -241 -102 -407 -131 -632
-111 -167 14 -268 37 -455 100 -231 78 -428 111 -661 111 -183 0 -341 -32
-687 -140 -386 -121 -555 -153 -790 -152 -267 0 -441 30 -730 122 -284 90
-505 123 -690 101 -116 -13 -583 -106 -762 -151 -127 -32 -163 -55 -163 -101
0 -33 45 -73 75 -66 11 3 65 17 120 31 171 46 685 146 780 152 159 11 395 -29
620 -106 269 -92 499 -125 807 -117 225 6 367 31 648 117 478 146 587 170 777
170 227 0 379 -26 623 -106 450 -147 776 -147 1133 2 294 121 473 159 717 151
189 -6 309 -28 549 -103 97 -30 233 -68 304 -86 l127 -32 28 21 c36 27 41 72
10 99 -13 11 -58 28 -103 38 -44 10 -161 43 -260 74 -239 73 -347 99 -483 117
-103 14 -293 18 -382 8z"/>
<path d="M7405 2754 c-196 -30 -324 -66 -500 -140 -232 -99 -406 -130 -623
-114 -171 13 -302 42 -461 100 -198 73 -420 110 -655 110 -206 0 -377 -34
-726 -145 -336 -107 -536 -145 -765 -145 -257 0 -439 30 -695 112 -341 109
-558 138 -788 103 -127 -19 -560 -107 -710 -145 -122 -31 -152 -49 -152 -94 0
-34 28 -66 58 -66 15 0 70 11 122 24 128 32 507 111 653 136 241 41 436 18
772 -90 288 -93 427 -115 735 -114 217 0 245 2 366 27 127 26 296 73 569 157
282 87 441 111 655 99 193 -10 310 -33 515 -99 258 -84 345 -100 560 -107 144
-4 198 -2 270 12 112 21 246 63 379 120 228 97 399 130 649 122 204 -6 285
-21 568 -107 274 -84 403 -114 429 -100 38 20 51 71 27 103 -7 11 -62 30 -144
52 -73 19 -208 57 -299 86 -265 82 -366 100 -589 104 -104 2 -203 1 -220 -1z"/>
<path d="M7347 2084 c-134 -20 -263 -58 -410 -118 -274 -112 -371 -132 -610
-123 -195 7 -300 27 -522 102 -241 81 -396 106 -650 107 -206 0 -334 -26 -750
-156 -312 -98 -516 -136 -733 -136 -241 0 -468 38 -717 120 -259 85 -450 117
-650 107 -172 -9 -850 -148 -936 -193 -76 -39 -23 -154 57 -124 50 19 224 60
499 117 277 57 282 57 450 57 199 0 286 -15 533 -95 301 -97 461 -123 757
-124 277 0 429 28 820 150 242 76 380 111 516 131 99 14 135 15 269 5 201 -15
313 -38 518 -105 247 -81 391 -106 607 -106 196 0 347 34 575 130 247 104 409
135 669 127 207 -6 279 -20 567 -107 279 -85 398 -114 424 -100 38 20 51 71
28 103 -8 11 -64 31 -143 52 -71 18 -195 54 -275 79 -196 60 -292 84 -413 101
-126 18 -362 18 -480 -1z"/>
</g>
</svg>
